<svg xmlns="http://www.w3.org/2000/svg" width="23.77" height="23.734" viewBox="0 0 23.77 23.734">
    <g data-name="Group 14596">
        <path data-name="Path 16317" d="M148.435 299.433H131.53v-2.119a.284.284 0 0 0-.485-.2l-4.964 4.964a.284.284 0 0 0 0 .4l4.964 4.964a.284.284 0 0 0 .485-.2v-2.119h16.9a.284.284 0 0 0 .284-.284v-5.122a.284.284 0 0 0-.284-.284zm-.284 5.122h-16.905a.284.284 0 0 0-.284.284v1.717l-4.279-4.279 4.279-4.277v1.718a.284.284 0 0 0 .284.284h16.905z" transform="translate(-125.497 -284.294)" style="fill:#fff;stroke:#fff"/>
        <path data-name="Path 16318" d="M143.674 56.072a.284.284 0 0 0-.485.2v2.119h-16.905a.284.284 0 0 0-.284.284V63.8a.284.284 0 0 0 .284.284h16.905V66.2a.284.284 0 0 0 .485.2l4.964-4.965a.284.284 0 0 0 0-.4zm.083 9.444V63.8a.284.284 0 0 0-.284-.284h-16.905v-4.555h16.905a.284.284 0 0 0 .284-.284v-1.718l4.279 4.279z" transform="translate(-125.499 -55.478)" style="fill:#fff;stroke:#fff"/>
    </g>
</svg>
