<svg xmlns="http://www.w3.org/2000/svg" width="23.457" height="22.697" viewBox="0 0 23.457 22.697">
    <g data-name="Group 15149">
        <path data-name="Path 16379" d="M30.219 30.564a6.895 6.895 0 1 1-6.88 7.3 8 8 0 1 1 6.613-7.3h.268zm-6.885 6.617a6.849 6.849 0 0 1 1.477-4 4.246 4.246 0 0 0-.99-.115H20.13a4.4 4.4 0 0 0-3.576 1.841 7.337 7.337 0 0 0 6.78 2.271zm1.97-4.557a6.9 6.9 0 0 1 3.978-2 7.334 7.334 0 1 0-13.474 3.318c.1.148.2.3.306.44A5.067 5.067 0 0 1 20.13 32.4h.043a3.951 3.951 0 1 1 3.605 0 5.306 5.306 0 0 1 1.525.225zm9.319.43a6.224 6.224 0 1 0 0 8.8 6.219 6.219 0 0 0 0-8.8zm-12.647-7.448a3.28 3.28 0 1 0 3.28 3.28 3.279 3.279 0 0 0-3.28-3.28z" transform="translate(-13.806 -21.807)" style="stroke-width:.3px;fill:#fff;stroke:#fff"/>
        <g data-name="Group 15148">
            <g data-name="Group 15146">
                <path data-name="Path 16470" d="M17.642 24.9a.952.952 0 0 1-.192-.027c-.307-.107-.461-.427-.6-.72a1.508 1.508 0 0 0-.307-.48 1.371 1.371 0 0 0-.538-.16 1.2 1.2 0 0 1-.845-.373 1.32 1.32 0 0 1-.077-.946 1.557 1.557 0 0 0 .026-.586 1.378 1.378 0 0 0-.333-.44 1.243 1.243 0 0 1-.474-.826 1.3 1.3 0 0 1 .474-.826 1.378 1.378 0 0 0 .333-.44 1.331 1.331 0 0 0-.026-.586 1.32 1.32 0 0 1 .077-.946 1.175 1.175 0 0 1 .84-.374 1.371 1.371 0 0 0 .538-.16 1.579 1.579 0 0 0 .307-.48c.141-.293.307-.626.6-.72a1.121 1.121 0 0 1 .871.213 1.273 1.273 0 0 0 .538.2 1.484 1.484 0 0 0 .538-.2 1.178 1.178 0 0 1 .871-.213c.307.107.461.427.6.72a1.508 1.508 0 0 0 .307.48 1.371 1.371 0 0 0 .538.16 1.2 1.2 0 0 1 .845.373 1.32 1.32 0 0 1 .077.946 1.557 1.557 0 0 0-.026.586 1.378 1.378 0 0 0 .333.44 1.243 1.243 0 0 1 .474.826 1.3 1.3 0 0 1-.474.826 1.378 1.378 0 0 0-.333.44 1.331 1.331 0 0 0 .026.586 1.32 1.32 0 0 1-.077.946 1.175 1.175 0 0 1-.845.373 1.371 1.371 0 0 0-.538.16 1.579 1.579 0 0 0-.307.48c-.141.293-.307.626-.6.72a1.121 1.121 0 0 1-.871-.213 1.273 1.273 0 0 0-.538-.2 1.484 1.484 0 0 0-.538.2 1.492 1.492 0 0 1-.674.241zm0-8.73a.157.157 0 0 0-.077.013c-.154.053-.269.293-.384.533a1.514 1.514 0 0 1-.423.613 1.528 1.528 0 0 1-.7.227c-.243.04-.5.08-.6.213a1.1 1.1 0 0 0-.013.653 1.972 1.972 0 0 1 .013.773 1.74 1.74 0 0 1-.435.6c-.179.187-.371.373-.371.56s.192.373.371.56a1.74 1.74 0 0 1 .435.6 1.584 1.584 0 0 1-.013.773 1.1 1.1 0 0 0 .013.653c.09.133.346.173.6.213a1.528 1.528 0 0 1 .7.227 1.721 1.721 0 0 1 .423.613c.115.24.23.48.384.533s.371-.067.589-.187a1.663 1.663 0 0 1 .717-.253 1.507 1.507 0 0 1 .717.253c.218.12.448.24.589.187s.269-.293.384-.533a1.152 1.152 0 0 1 1.127-.84c.243-.04.5-.08.6-.213a1.1 1.1 0 0 0 .013-.653 1.971 1.971 0 0 1-.013-.773 1.74 1.74 0 0 1 .435-.6c.179-.187.371-.373.371-.56s-.192-.373-.371-.56a1.74 1.74 0 0 1-.435-.6 1.584 1.584 0 0 1 .013-.773 1.1 1.1 0 0 0-.013-.653c-.09-.133-.346-.173-.6-.213a1.528 1.528 0 0 1-.7-.227 1.721 1.721 0 0 1-.423-.613c-.115-.24-.23-.48-.384-.533s-.371.067-.589.187a1.663 1.663 0 0 1-.717.253 1.507 1.507 0 0 1-.717-.253 1.383 1.383 0 0 0-.516-.2z" transform="translate(-2.34 -4.623)" style="stroke-width:.4px;fill:#fff;stroke:#fff"/>
            </g>
            <g data-name="Group 15147">
                <path data-name="Path 16471" d="M40.921 42.634a.364.364 0 0 1-.138-.039l-1.258-.668-1.258.668a.3.3 0 0 1-.314-.02.264.264 0 0 1-.118-.275l.236-1.4-1.022-.983a.329.329 0 0 1-.079-.295.3.3 0 0 1 .236-.2l1.4-.2.629-1.277a.286.286 0 0 1 .511 0l.629 1.277 1.4.2a.3.3 0 0 1 .236.2.283.283 0 0 1-.079.295L40.9 40.9l.236 1.4a.252.252 0 0 1-.118.275c.021.039-.038.059-.097.059zm-1.4-1.317a.364.364 0 0 1 .138.039l.865.452-.157-.963a.291.291 0 0 1 .079-.255l.707-.688-.983-.138a.3.3 0 0 1-.216-.157l-.432-.9-.432.884a.3.3 0 0 1-.216.157l-.983.138.707.688a.291.291 0 0 1 .079.255l-.157.963.865-.452c.042-.003.101-.023.141-.023z" transform="translate(-22.986 -24.479)" style="stroke-width:.1px;fill:#fff;stroke:#fff"/>
            </g>
        </g>
    </g>
</svg>
