<svg xmlns="http://www.w3.org/2000/svg" width="25.376" height="30.605" viewBox="0 0 25.376 30.605">
    <path data-name="Path 16328" d="M184.926 74.721V69.7a4.425 4.425 0 1 0-8.849 0 3.685 3.685 0 0 1-3.93 3.676 3.765 3.765 0 0 1-3.438-3.816v-5.424a6.565 6.565 0 0 0 2.027-5.174 3.963 3.963 0 0 0-.533-1.817A2.391 2.391 0 0 0 168.226 56a2.428 2.428 0 0 0-2.059 1.044 3.769 3.769 0 0 0-.6 2.188 6.943 6.943 0 0 0 2.4 4.909v5.42a4.506 4.506 0 0 0 4.131 4.554 4.425 4.425 0 0 0 4.719-4.415 3.684 3.684 0 1 1 7.369 0v5.014a5.434 5.434 0 1 0 .74.007zM166.3 59.233a3.051 3.051 0 0 1 .472-1.767 1.678 1.678 0 0 1 1.382-.726h.048a1.631 1.631 0 0 1 1.366.792 3.238 3.238 0 0 1 .432 1.481 5.9 5.9 0 0 1-1.667 4.455 6.2 6.2 0 0 1-2.027-4.235zm18.183 25.633a4.713 4.713 0 1 1 4.713-4.713 4.718 4.718 0 0 1-4.71 4.712z" transform="translate(-165.063 -55.5)" style="fill:#fff;stroke:#fff"/>
</svg>
