<svg xmlns="http://www.w3.org/2000/svg" width="46.08" height="36" viewBox="0 0 46.08 36">
    <g data-name="Group 1301">
        <path data-name="Path 1209" d="M173.6 176h-11.52L152 186.08h31.68z" transform="translate(-138.32 -165.2)" style="fill:#ffc252"/>
        <path data-name="Path 1210" d="M162.08 74.08h11.52L183.68 64H152z" transform="translate(-138.32 -63.28)" style="fill:#ffc252"/>
    </g>
    <g data-name="Group 1302">
        <path data-name="Path 1211" d="M152 84.16V64l10.08 10.08z" transform="translate(-138.32 -63.28)" style="fill:#ffde8a"/>
        <path data-name="Path 1212" d="M402.08 84.16V64L392 74.08z" transform="translate(-356.72 -63.28)" style="fill:#ffde8a"/>
    </g>
    <g data-name="Group 1303">
        <path data-name="Path 1213" d="M177.12 77.6H144V56h33.12zm-31.68-1.44h30.24V57.44h-30.24z" transform="translate(-131.04 -56)" style="fill:#667587"/>
        <path data-name="Path 1214" d="M168.751 69.653h-12.116l-10.291-10.291 1.018-1.018 9.869 9.869h10.924l9.869-9.869 1.018 1.018z" transform="translate(-133.173 -58.133)" style="fill:#667587"/>
        <path data-name="Rectangle 2249" transform="rotate(135 18.716 19.684)" style="fill:#667587" d="M0 0h1.44v14.255H0z"/>
        <path data-name="Rectangle 2250" transform="rotate(135 9.792 10.681)" style="fill:#667587" d="M0 0h14.255v1.44H0z"/>
        <path data-name="Rectangle 2251" transform="translate(25.634 15.407)" style="fill:#667587" d="M0 0h1.945v1.297H0z"/>
        <path data-name="Rectangle 2252" transform="translate(28.875 15.407)" style="fill:#667587" d="M0 0h1.297v1.297H0z"/>
        <path data-name="Rectangle 2253" transform="translate(31.468 15.407)" style="fill:#667587" d="M0 0h1.945v1.297H0z"/>
        <path data-name="Rectangle 2254" transform="translate(2.943 17.352)" style="fill:#667587" d="M0 0h8.428v1.297H0z"/>
        <path data-name="Rectangle 2255" transform="translate(2.943 19.945)" style="fill:#667587" d="M0 0h4.538v1.945H0z"/>
        <path data-name="Path 1215" d="M148.72 393.9a1.1 1.1 0 0 0-1.771 0l-1.109-.919a2.519 2.519 0 0 1 3.989 0z" transform="translate(-132.714 -361.76)" style="fill:#667587"/>
        <path data-name="Path 1216" d="M212.72 393.9a1.1 1.1 0 0 0-1.771 0l-1.109-.919a2.519 2.519 0 0 1 3.989 0z" transform="translate(-190.954 -361.76)" style="fill:#667587"/>
        <path data-name="Path 1217" d="M179.834 404.8a2.573 2.573 0 0 1-1.994-.98l1.109-.919a1.1 1.1 0 0 0 1.771 0l1.109.919a2.573 2.573 0 0 1-1.995.98z" transform="translate(-161.834 -371.675)" style="fill:#667587"/>
        <path data-name="Path 1218" d="M243.834 404.788a2.575 2.575 0 0 1-1.994-.98l1.109-.919a1.16 1.16 0 0 0 .886.459 1.16 1.16 0 0 0 .886-.46l1.108.919a2.57 2.57 0 0 1-1.995.981z" transform="translate(-220.074 -371.668)" style="fill:#667587"/>
        <path data-name="Path 1219" d="M148.72 353.9a1.1 1.1 0 0 0-1.771 0l-1.109-.919a2.519 2.519 0 0 1 3.989 0z" transform="translate(-132.714 -325.36)" style="fill:#667587"/>
        <path data-name="Path 1220" d="M212.72 353.9a1.1 1.1 0 0 0-1.771 0l-1.109-.919a2.519 2.519 0 0 1 3.989 0z" transform="translate(-190.954 -325.36)" style="fill:#667587"/>
        <path data-name="Path 1221" d="M179.834 364.8a2.573 2.573 0 0 1-1.994-.98l1.109-.919a1.1 1.1 0 0 0 1.771 0l1.109.919a2.573 2.573 0 0 1-1.995.98z" transform="translate(-161.834 -335.275)" style="fill:#667587"/>
        <path data-name="Path 1222" d="M243.834 364.788a2.575 2.575 0 0 1-1.994-.98l1.109-.919a1.16 1.16 0 0 0 .886.459 1.16 1.16 0 0 0 .886-.46l1.108.919a2.57 2.57 0 0 1-1.995.981z" transform="translate(-220.074 -335.268)" style="fill:#667587"/>
    </g>
    <path data-name="Rectangle 2256" transform="translate(2.943 23.186)" style="fill:#e83c3c" d="M0 0h8.428v10.373H0z"/>
    <path data-name="Rectangle 2257" transform="translate(4.239 24.483)" style="fill:#ff5f5c" d="M0 0h5.835v7.131H0z"/>
    <path data-name="Rectangle 2258" transform="translate(6.832 27.725)" style="fill:#fff" d="M0 0h.648v.648H0z"/>
    <g data-name="Group 1304">
        <path data-name="Path 1223" d="M33.12 237.6H0V216h11.52v1.44H1.44v18.72h30.24v-11.52h1.44z" transform="translate(0 -201.6)" style="fill:#667587"/>
        <path data-name="Rectangle 2259" transform="translate(36.654 30.318)" style="fill:#667587" d="M0 0h3.89v1.297H0z"/>
        <path data-name="Rectangle 2260" transform="translate(39.248 27.725)" style="fill:#667587" d="M0 0h6.483v.648H0z"/>
        <path data-name="Rectangle 2261" transform="translate(5.536 5.034)" style="fill:#667587" d="M0 0h3.89v1.297H0z"/>
        <path data-name="Rectangle 2262" transform="translate(.349 7.627)" style="fill:#667587" d="M0 0h6.483v1.945H0z"/>
    </g>
</svg>
