<svg xmlns="http://www.w3.org/2000/svg" width="24.753" height="27.698" viewBox="0 0 24.753 27.698">
    <g data-name="Group 14593">
        <path data-name="Path 16305" d="M134.517 30.62a2.779 2.779 0 0 0-1.953.816l-3.12-1.808a4.645 4.645 0 0 0 .35-1.808 4.5 4.5 0 0 0-.35-1.779l3.149-1.808a2.763 2.763 0 1 0-.816-1.953 2.939 2.939 0 0 0 .117.729l-3.178 1.837a4.892 4.892 0 0 0-3.09-1.808v-3.614a2.748 2.748 0 0 0 2.07-2.653 2.77 2.77 0 1 0-5.54 0 2.723 2.723 0 0 0 2.07 2.653v3.645a4.783 4.783 0 0 0-3.091 1.779l-3.149-1.808a2.929 2.929 0 0 0 .117-.729 2.788 2.788 0 1 0-.817 1.953l3.149 1.808a4.77 4.77 0 0 0 0 3.586l-3.12 1.808a2.662 2.662 0 0 0-1.953-.816 2.77 2.77 0 1 0 2.77 2.77 2.939 2.939 0 0 0-.117-.729l3.12-1.837a4.733 4.733 0 0 0 3.091 1.779v3.645a2.748 2.748 0 0 0-2.07 2.653 2.77 2.77 0 1 0 5.54 0 2.723 2.723 0 0 0-2.07-2.653v-3.646a4.855 4.855 0 0 0 3.091-1.779l3.149 1.837a2.929 2.929 0 0 0-.117.729 2.77 2.77 0 1 0 2.77-2.8zm0-9.68a1.37 1.37 0 1 1-1.37 1.37 1.369 1.369 0 0 1 1.37-1.37zm-19.185 2.741a1.37 1.37 0 1 1 1.37-1.37 1.369 1.369 0 0 1-1.37 1.37zm0 11.079a1.37 1.37 0 1 1 1.37-1.37 1.369 1.369 0 0 1-1.37 1.37zm8.222-17.989a1.37 1.37 0 1 1 1.37 1.37 1.369 1.369 0 0 1-1.37-1.37zM126.3 38.93a1.37 1.37 0 1 1-1.37-1.37 1.369 1.369 0 0 1 1.37 1.37zm-1.37-7.61a3.47 3.47 0 1 1 3.47-3.47 3.478 3.478 0 0 1-3.475 3.47zm9.592 3.44a1.37 1.37 0 1 1 1.37-1.37 1.369 1.369 0 0 1-1.375 1.37z" transform="translate(-112.562 -14.001)" style="fill:#fff"/>
        <path data-name="Path 16306" d="M308.1 235.2a2.488 2.488 0 0 0-.671.117 1.039 1.039 0 0 1 .233.671 1.1 1.1 0 0 1-1.779.875 2.481 2.481 0 0 0-.117.671 2.333 2.333 0 1 0 2.334-2.334z" transform="translate(-295.704 -223.684)" style="fill:#fff"/>
    </g>
</svg>
