<svg xmlns="http://www.w3.org/2000/svg" width="23.87" height="23.87" viewBox="0 0 23.87 23.87">
    <path d="M86.951 22.164v-9.487a.655.655 0 0 1 .652-.644.643.643 0 0 1 .652.644v9.488h1.314a2.609 2.609 0 0 0 2.6-2.6V3.9a2.609 2.609 0 0 0-2.6-2.6H73.9a2.609 2.609 0 0 0-2.6 2.6v15.666a2.609 2.609 0 0 0 2.6 2.6h1.314v-6.219a.665.665 0 0 1 .652-.665.653.653 0 0 1 .652.665v6.218h2.608V9.431a.656.656 0 0 1 .652-.647.643.643 0 0 1 .652.647v12.733h2.608V4.558a.657.657 0 0 1 .652-.649.651.651 0 0 1 .652.649v17.606zM70 3.9A3.913 3.913 0 0 1 73.9 0h15.668a3.913 3.913 0 0 1 3.9 3.9v15.666a3.913 3.913 0 0 1-3.9 3.9H73.9a3.913 3.913 0 0 1-3.9-3.9z" transform="translate(-69.8 .202)" style="fill:#fff;stroke:#fff;stroke-width:.4px"/>
</svg>
