<svg xmlns="http://www.w3.org/2000/svg" width="22.625" height="22.625" viewBox="0 0 22.625 22.625">
    <g data-name="Group 14594">
        <path data-name="Path 16307" d="m95.5 23.646-5.982-5.381-.507.507-1.321-1.316a7.795 7.795 0 1 0-.239.239l1.318 1.318-.507.507 5.379 5.98a1.3 1.3 0 0 0 .942.437h.038a1.314 1.314 0 0 0 .875-2.292zm-20.85-11.56c.358-.329 3.6-3.211 7.434-3.211s7.07 2.877 7.433 3.21c-.362.333-3.607 3.21-7.433 3.21S75 12.413 74.647 12.086zm7.43-7.434a7.442 7.442 0 0 1 7.418 6.97c-.9-.769-3.918-3.085-7.418-3.085s-6.513 2.316-7.418 3.085a7.442 7.442 0 0 1 7.418-6.971zm-7.418 7.9c.9.769 3.918 3.085 7.418 3.085s6.513-2.316 7.418-3.085a7.432 7.432 0 0 1-14.835 0zM95.31 25.315a.981.981 0 0 1-.717.285.967.967 0 0 1-.7-.325l-5.166-5.744.8-.8 5.744 5.169a.976.976 0 0 1 .039 1.417z" transform="translate(-73.809 -3.814)" style="fill:#fff;stroke:#fff"/>
        <path data-name="Path 16308" d="M204.974 132.1a2.872 2.872 0 1 0-2.872 2.872 2.875 2.875 0 0 0 2.872-2.872zm-5.406 0a2.534 2.534 0 1 1 2.534 2.534 2.537 2.537 0 0 1-2.534-2.534z" transform="translate(-193.831 -123.831)" style="fill:#fff;stroke:#fff"/>
        <path data-name="Path 16309" d="M228.8 156.935a1.84 1.84 0 0 0-.375-1.115l-.124-.165-.137.154a.507.507 0 0 1-.859-.5l.066-.2-.206-.024a1.858 1.858 0 1 0 1.635 1.844zm-3.379 0a1.522 1.522 0 0 1 1.521-1.521.845.845 0 0 0 1.312.76 1.5 1.5 0 0 1 .206.761 1.521 1.521 0 0 1-3.041 0z" transform="translate(-218.667 -148.664)" style="fill:#fff;stroke:#fff"/>
    </g>
</svg>
