<svg xmlns="http://www.w3.org/2000/svg" width="25.1" height="22.6" viewBox="0 0 25.1 22.6">
    <path data-name="Path 1538" d="M21.875.332H3.125A3.128 3.128 0 0 0 0 3.457v16.25a3.128 3.128 0 0 0 3.125 3.125h18.75A3.128 3.128 0 0 0 25 19.707V3.457A3.128 3.128 0 0 0 21.875.332zm-18.75 1.25h18.75a1.877 1.877 0 0 1 1.875 1.875v.625H1.25v-.625a1.877 1.877 0 0 1 1.875-1.875zm18.75 20H3.125a1.877 1.877 0 0 1-1.875-1.875V5.332h22.5v14.375a1.877 1.877 0 0 1-1.875 1.875zm0 0" transform="translate(.05 -.282)" style="fill:#fff;stroke:#fff;stroke-width:.1px"/>
    <path data-name="Path 1539" d="M68.375 149.668a4.375 4.375 0 1 0 4.375 4.375 4.375 4.375 0 0 0-4.375-4.375zm3.062 3.75H69v-2.437a3.134 3.134 0 0 1 2.437 2.437zm-3.062 3.75a3.125 3.125 0 0 1-.625-6.187v3.062a.624.624 0 0 0 .625.625h3.062a3.13 3.13 0 0 1-3.062 2.5zm0 0" transform="translate(-60.2 -140.868)" style="fill:#fff;stroke:#fff;stroke-width:.1px"/>
    <path data-name="Path 1540" d="M256.625 224.332a.625.625 0 0 0-.625.625v2.5a.625.625 0 0 0 1.25 0v-2.5a.625.625 0 0 0-.625-.625zm0 0" transform="translate(-240.95 -211.157)" style="fill:#fff;stroke:#fff;stroke-width:.1px"/>
    <path data-name="Path 1541" d="M299.293 192.332a.625.625 0 0 0-.625.625v4.375a.625.625 0 0 0 1.25 0v-4.375a.625.625 0 0 0-.625-.625zm0 0" transform="translate(-281.118 -181.032)" style="fill:#fff;stroke:#fff;stroke-width:.1px"/>
    <path data-name="Path 1542" d="M341.957 160.332a.625.625 0 0 0-.625.625v6.25a.625.625 0 0 0 1.25 0v-6.25a.625.625 0 0 0-.625-.625zm0 0" transform="translate(-321.282 -150.907)" style="fill:#fff;stroke:#fff;stroke-width:.1px"/>
</svg>
