<svg xmlns="http://www.w3.org/2000/svg" width="24.131" height="23.759" viewBox="0 0 24.131 23.759">
    <g data-name="Group 14595">
        <path data-name="Path 16310" d="M15.443 250.743a1.887 1.887 0 1 1-1.889-1.887 1.888 1.888 0 0 1 1.889 1.887zm0 0" transform="translate(-10.669 -238.261)" style="fill:none;stroke:#fff;stroke-linecap:round;stroke-linejoin:round;stroke-miterlimit:10;stroke-width:2px"/>
        <path data-name="Path 16311" d="M180.422 454.192a1.887 1.887 0 1 1-1.887-1.887 1.887 1.887 0 0 1 1.887 1.887" transform="translate(-168.844 -433.32)" style="fill:none;stroke:#fff;stroke-linecap:round;stroke-linejoin:round;stroke-miterlimit:10;stroke-width:2px"/>
        <path data-name="Path 16312" d="M288.586 18.055a1.887 1.887 0 1 1-1.887-1.887 1.887 1.887 0 0 1 1.887 1.887zm0 0" transform="translate(-272.548 -15.168)" style="fill:none;stroke:#fff;stroke-linecap:round;stroke-linejoin:round;stroke-miterlimit:10;stroke-width:2px"/>
        <path data-name="Path 16313" d="M460.593 277.461a1.887 1.887 0 1 1-1.889-1.888 1.888 1.888 0 0 1 1.889 1.888zm0 0" transform="translate(-437.462 -263.877)" style="fill:none;stroke:#fff;stroke-linecap:round;stroke-linejoin:round;stroke-miterlimit:10;stroke-width:2px"/>
        <path data-name="Path 16314" d="m91.878 340.431 3.987 5.236" transform="translate(-87.57 -326.06)" style="fill:none;stroke:#fff;stroke-linecap:round;stroke-linejoin:round;stroke-miterlimit:10;stroke-width:2px"/>
        <path data-name="Path 16315" d="m245.194 121.909 3.265-14.211" transform="translate(-234.564 -102.924)" style="fill:none;stroke:#fff;stroke-linecap:round;stroke-linejoin:round;stroke-miterlimit:10;stroke-width:2px"/>
        <path data-name="Path 16316" d="m360.954 107.7 4.6 7.4" transform="translate(-345.55 -102.924)" style="fill:none;stroke:#fff;stroke-linecap:round;stroke-linejoin:round;stroke-miterlimit:10;stroke-width:2px"/>
    </g>
</svg>
