<?xml version="1.0" encoding="UTF-8" standalone="no"?>
<!-- Created with Inkscape (http://www.inkscape.org/) -->

<svg
   xmlns:dc="http://purl.org/dc/elements/1.1/"
   xmlns:cc="http://creativecommons.org/ns#"
   xmlns:rdf="http://www.w3.org/1999/02/22-rdf-syntax-ns#"
   xmlns:svg="http://www.w3.org/2000/svg"
   xmlns="http://www.w3.org/2000/svg"
   xmlns:sodipodi="http://sodipodi.sourceforge.net/DTD/sodipodi-0.dtd"
   xmlns:inkscape="http://www.inkscape.org/namespaces/inkscape"
   version="1.1"
   id="svg2"
   xml:space="preserve"
   width="570.70001"
   height="570.70129"
   viewBox="0 0 570.70002 570.7013"
   sodipodi:docname="neutral-flat.svg"
   inkscape:version="0.92.0 r15299"><metadata
     id="metadata8"><rdf:RDF><cc:Work
         rdf:about=""><dc:format>image/svg+xml</dc:format><dc:type
           rdf:resource="http://purl.org/dc/dcmitype/StillImage" /><dc:title></dc:title></cc:Work></rdf:RDF></metadata><defs
     id="defs6"><clipPath
       clipPathUnits="userSpaceOnUse"
       id="clipPath18"><path
         d="M 0,428.025 H 1337.157 V 0 H 0 Z"
         id="path16"
         inkscape:connector-curvature="0" /></clipPath></defs><sodipodi:namedview
     pagecolor="#ffffff"
     bordercolor="#666666"
     borderopacity="1"
     objecttolerance="10"
     gridtolerance="10"
     guidetolerance="10"
     inkscape:pageopacity="0"
     inkscape:pageshadow="2"
     inkscape:window-width="1920"
     inkscape:window-height="1001"
     id="namedview4"
     showgrid="false"
     fit-margin-top="0"
     fit-margin-left="0"
     fit-margin-right="0"
     fit-margin-bottom="0"
     inkscape:zoom="0.20023782"
     inkscape:cx="57.431204"
     inkscape:cy="285.3504"
     inkscape:window-x="-9"
     inkscape:window-y="-9"
     inkscape:window-maximized="1"
     inkscape:current-layer="g14" /><g
     id="g10"
     inkscape:groupmode="layer"
     inkscape:label="AllThreeFaces"
     transform="matrix(1.3333333,0,0,-1.3333333,-5.3333332e-4,570.70092)"><g
       id="g12"><g
         id="g14"
         clip-path="url(#clipPath18)"><g
           id="g20"
           transform="translate(428.0254,214.0127)"><path
             d="m 0,0 c 0,-118.198 -95.815,-214.013 -214.013,-214.013 -118.195,0 -214.012,95.815 -214.012,214.013 0,118.195 95.817,214.013 214.012,214.013 C -95.815,214.013 0,118.195 0,0"
             style="fill:#88e113;fill-opacity:1;fill-rule:nonzero;stroke:none"
             id="path22"
             inkscape:connector-curvature="0" /></g><g
           id="g24"
           transform="translate(180.0669,270.376)"><path
             d="m 0,0 c 0,-16.11 -13.059,-29.17 -29.169,-29.17 -16.112,0 -29.172,13.06 -29.172,29.17 0,16.11 13.06,29.169 29.172,29.169 C -13.059,29.169 0,16.11 0,0"
             style="fill:#231f20;fill-opacity:1;fill-rule:nonzero;stroke:none"
             id="path26"
             inkscape:connector-curvature="0" /></g><g
           id="g28"
           transform="translate(309.5728,270.376)"><path
             d="m 0,0 c 0,-16.11 -13.06,-29.17 -29.171,-29.17 -16.109,0 -29.169,13.06 -29.169,29.17 0,16.11 13.06,29.169 29.169,29.169 C -13.06,29.169 0,16.11 0,0"
             style="fill:#231f20;fill-opacity:1;fill-rule:nonzero;stroke:none"
             id="path30"
             inkscape:connector-curvature="0" /></g><g
           id="g32"
           transform="translate(171.4756,279.9258)"><path
             d="m 0,0 c 0,-5.356 -4.341,-9.698 -9.699,-9.698 -5.356,0 -9.698,4.342 -9.698,9.698 0,5.356 4.342,9.697 9.698,9.697 C -4.341,9.697 0,5.356 0,0"
             style="fill:#ffffff;fill-opacity:1;fill-rule:nonzero;stroke:none"
             id="path34"
             inkscape:connector-curvature="0" /></g><g
           id="g36"
           transform="translate(300.2529,279.9258)"><path
             d="m 0,0 c 0,-5.356 -4.341,-9.698 -9.698,-9.698 -5.358,0 -9.699,4.342 -9.699,9.698 0,5.356 4.341,9.697 9.699,9.697 C -4.341,9.697 0,5.356 0,0"
             style="fill:#ffffff;fill-opacity:1;fill-rule:nonzero;stroke:none"
             id="path38"
             inkscape:connector-curvature="0" /></g><g
           id="g40"
           transform="translate(278.2695,172.332)"><path
             d="m 0,0 c -0.166,-0.505 -0.343,-1.009 -0.52,-1.516 -18.325,-51.636 -63.182,-83.422 -100.176,-71.005 -26.529,8.905 -41.812,38.148 -41.563,73.038 11.878,-13.057 27.215,-22.832 45.155,-27.671 C -62.257,-36.554 -26.008,-25.062 0,0"
             style="fill:#231f20;fill-opacity:1;fill-rule:nonzero;stroke:none"
             id="path42"
             inkscape:connector-curvature="0" /></g><g
           id="g44"
           transform="translate(1337.1567,214.0127)"
           inkscape:export-filename="C:\Users\Gian Brazzini\Desktop\g44.png"
           inkscape:export-xdpi="90"
           inkscape:export-ydpi="90"><path
             d="m 0,0 c 0,-117.792 -95.485,-213.277 -213.277,-213.277 -117.789,0 -213.278,95.485 -213.278,213.277 0,117.789 95.489,213.277 213.278,213.277 C -95.485,213.277 0,117.789 0,0"
             style="fill:#f76a38;fill-opacity:1;fill-rule:nonzero;stroke:none"
             id="path46"
             inkscape:connector-curvature="0" /></g><g
           id="g48"
           transform="translate(1089.3677,270.2188)"><path
             d="m 0,0 c 0,-16.057 -13.015,-29.072 -29.071,-29.072 -16.058,0 -29.075,13.015 -29.075,29.072 0,4.265 0.929,8.337 2.592,11.984 L -26.92,9.136 -8.04,7.255 -0.747,6.52 C -0.258,4.42 0,2.243 0,0"
             style="fill:#231f20;fill-opacity:1;fill-rule:nonzero;stroke:none"
             id="path50"
             inkscape:connector-curvature="0" /></g><g
           id="g52"
           transform="translate(1218.4302,270.2188)"><path
             d="m 0,0 c 0,-16.057 -13.017,-29.072 -29.073,-29.072 -16.057,0 -29.073,13.015 -29.073,29.072 0,2.487 0.31,4.897 0.915,7.204 l 30.71,2.99 16.792,1.635 6.893,0.671 C -1.018,8.724 0,4.471 0,0"
             style="fill:#231f20;fill-opacity:1;fill-rule:nonzero;stroke:none"
             id="path54"
             inkscape:connector-curvature="0" /></g><g
           id="g56"
           transform="translate(1081.3647,276.5713)"><path
             d="m 0,0 c 0,-5.334 -4.329,-9.665 -9.664,-9.665 -5.335,0 -9.666,4.331 -9.666,9.665 0,0.967 0.142,1.908 0.413,2.784 L -0.037,0.902 C -0.012,0.607 0,0.297 0,0"
             style="fill:#ffffff;fill-opacity:1;fill-rule:nonzero;stroke:none"
             id="path58"
             inkscape:connector-curvature="0" /></g><g
           id="g60"
           transform="translate(1210.4272,276.5713)"><path
             d="m 0,0 c 0,-5.334 -4.33,-9.665 -9.665,-9.665 -5.337,0 -9.665,4.331 -9.665,9.665 0,1.367 0.283,2.668 0.811,3.841 L -1.727,5.477 C -0.632,3.918 0,2.037 0,0"
             style="fill:#ffffff;fill-opacity:1;fill-rule:nonzero;stroke:none"
             id="path62"
             inkscape:connector-curvature="0" /></g><g
           id="g64"
           transform="translate(1042.5552,120.1035)"><path
             d="m 0,0 c -0.173,3.885 0.091,7.795 0.628,11.668 0.526,3.881 1.355,7.734 2.446,11.551 2.21,7.612 5.572,15.089 10.524,21.849 4.919,6.732 11.704,12.684 19.868,16.278 4.052,1.827 8.402,2.977 12.761,3.62 2.183,0.31 4.377,0.442 6.551,0.472 1.172,0.006 1.907,0.012 2.995,-0.004 1.044,-0.014 2.074,-0.038 3.074,-0.079 4.039,-0.203 8.098,-0.616 12.147,-1.296 4.037,-0.74 8.074,-1.692 12.014,-3.046 7.873,-2.668 15.412,-6.785 21.71,-12.237 6.325,-5.426 11.372,-12.026 15.119,-19.038 3.741,-7.037 6.366,-14.42 8.002,-22.006 -4.615,6.241 -9.076,12.365 -14.042,17.78 -4.934,5.43 -10.283,10.164 -16.146,13.82 -11.67,7.426 -25.311,10.415 -39.479,11.043 -0.895,0.051 -1.763,0.083 -2.617,0.108 -0.808,0.03 -1.972,0.04 -2.698,0.049 -1.621,0.014 -3.222,-0.093 -4.806,-0.245 -3.175,-0.291 -6.246,-1.029 -9.22,-2.082 -2.979,-1.053 -5.815,-2.543 -8.548,-4.33 C 27.576,42.055 24.984,39.91 22.571,37.477 17.717,32.622 13.529,26.721 9.831,20.365 6.127,13.991 2.9,7.175 0,0"
             style="fill:#231f20;fill-opacity:1;fill-rule:nonzero;stroke:none"
             id="path66"
             inkscape:connector-curvature="0" /></g><g
           id="g68"
           transform="translate(877.9517,215.5308)"><path
             d="m 0,0 c 0,-116.807 -94.688,-211.497 -211.495,-211.497 -116.805,0 -211.496,94.69 -211.496,211.497 0,116.806 94.691,211.495 211.496,211.495 C -94.688,211.495 0,116.806 0,0"
             style="fill:#2babc9;fill-opacity:1;fill-rule:nonzero;stroke:none"
             id="path70"
             inkscape:connector-curvature="0" /></g><g
           id="g72"
           transform="translate(631.5991,270.9771)"><path
             d="m 0,0 c 0,-15.869 -12.864,-28.734 -28.733,-28.734 -15.871,0 -28.735,12.865 -28.735,28.734 0,15.869 12.864,28.735 28.735,28.735 C -12.864,28.735 0,15.869 0,0"
             style="fill:#231f20;fill-opacity:1;fill-rule:nonzero;stroke:none"
             id="path74"
             inkscape:connector-curvature="0" /></g><g
           id="g76"
           transform="translate(759.1694,270.9771)"><path
             d="m 0,0 c 0,-15.869 -12.864,-28.734 -28.735,-28.734 -15.869,0 -28.732,12.865 -28.732,28.734 0,15.869 12.863,28.735 28.732,28.735 C -12.864,28.735 0,15.869 0,0"
             style="fill:#231f20;fill-opacity:1;fill-rule:nonzero;stroke:none"
             id="path78"
             inkscape:connector-curvature="0" /></g><g
           id="g80"
           transform="translate(623.1367,280.3848)"><path
             d="m 0,0 c 0,-5.276 -4.277,-9.552 -9.554,-9.552 -5.277,0 -9.554,4.276 -9.554,9.552 0,5.276 4.277,9.552 9.554,9.552 C -4.277,9.552 0,5.276 0,0"
             style="fill:#ffffff;fill-opacity:1;fill-rule:nonzero;stroke:none"
             id="path82"
             inkscape:connector-curvature="0" /></g><g
           id="g84"
           transform="translate(749.9888,280.3848)"><path
             d="m 0,0 c 0,-5.276 -4.276,-9.552 -9.553,-9.552 -5.277,0 -9.554,4.276 -9.554,9.552 0,5.276 4.277,9.552 9.554,9.552 C -4.276,9.552 0,5.276 0,0"
             style="fill:#ffffff;fill-opacity:1;fill-rule:nonzero;stroke:none"
             id="path86"
             inkscape:connector-curvature="0" /></g><g
           id="g88"
           transform="translate(595.7695,133.0791)"><path
             d="m 0,0 c 2.725,5.031 6.393,9.494 10.502,13.527 4.129,4.021 8.785,7.522 13.738,10.55 9.942,6.021 21.141,9.951 32.618,11.831 11.482,1.872 23.311,1.696 34.636,-0.736 5.653,-1.242 11.185,-2.996 16.414,-5.392 5.214,-2.414 10.177,-5.35 14.47,-9.136 -11.247,1.695 -21.756,2.76 -32.239,2.796 C 79.694,23.515 69.412,22.747 59.269,21.105 49.125,19.464 39.153,16.935 29.335,13.471 19.47,10.031 9.951,5.501 0,0"
             style="fill:#000000;fill-opacity:1;fill-rule:nonzero;stroke:none"
             id="path90"
             inkscape:connector-curvature="0" /></g></g></g></g></svg>