<svg version="1.2" xmlns="http://www.w3.org/2000/svg" viewBox="0 0 571 572" width="571" height="572"><defs><clipPath clipPathUnits="userSpaceOnUse" id="cp1"><path d="m0 1h1782.88v570.7h-1782.88z"/></clipPath></defs><style>.a{fill:#17be6b}.b{fill:#231f20}.c{fill:#fff}.d{fill:#f76a38}.e{fill:#2babc9}</style><g clip-path="url(#cp1)"><path class="a" d="m570.7 286.4c0 157.5-127.8 285.3-285.4 285.3-157.5 0-285.3-127.8-285.3-285.3 0-157.6 127.8-285.4 285.3-285.4 157.6 0 285.4 127.8 285.4 285.4z"/><path class="b" d="m240.1 211.2c0 21.5-17.4 38.9-38.9 38.9-21.5 0-38.9-17.4-38.9-38.9 0-21.5 17.4-38.9 38.9-38.9 21.5 0 38.9 17.4 38.9 38.9z"/><path class="b" d="m412.8 211.2c0 21.5-17.5 38.9-38.9 38.9-21.5 0-38.9-17.4-38.9-38.9 0-21.5 17.4-38.9 38.9-38.9 21.4 0 38.9 17.4 38.9 38.9z"/><path class="c" d="m228.6 198.5c0 7.1-5.8 12.9-12.9 12.9-7.1 0-12.9-5.8-12.9-12.9 0-7.2 5.8-13 12.9-13 7.1 0 12.9 5.8 12.9 13z"/><path class="c" d="m400.3 198.5c0 7.1-5.8 12.9-12.9 12.9-7.1 0-12.9-5.8-12.9-12.9 0-7.2 5.8-13 12.9-13 7.1 0 12.9 5.8 12.9 13z"/><path class="b" d="m371 341.9q-0.3 1-0.7 2c-24.4 68.9-84.2 111.3-133.5 94.7-35.4-11.9-55.8-50.8-55.5-97.4 15.9 17.4 36.3 30.5 60.3 36.9 46.4 12.6 94.7-2.8 129.4-36.2z"/><path class="d" d="m1782.9 286.4c0 157-127.3 284.3-284.4 284.3-157 0-284.4-127.3-284.4-284.3 0-157.1 127.4-284.4 284.4-284.4 157.1 0 284.4 127.3 284.4 284.4z"/><path class="b" d="m1452.5 211.4c0 21.4-17.4 38.8-38.8 38.8-21.4 0-38.7-17.4-38.7-38.8 0-5.7 1.2-11.1 3.4-16l38.2 3.8 25.2 2.5 9.7 1q1 4.2 1 8.7z"/><path class="b" d="m1624.6 211.4c0 21.4-17.4 38.8-38.8 38.8-21.4 0-38.8-17.4-38.8-38.8q0.1-5 1.3-9.6l40.9-4 22.4-2.2 9.2-0.9c2.4 5.1 3.8 10.7 3.8 16.7z"/><path class="c" d="m1441.8 202.9c0 7.2-5.8 12.9-12.9 12.9-7.1 0-12.9-5.7-12.9-12.9q0.1-1.9 0.6-3.7l25.2 2.5q0 0.6 0 1.2z"/><path class="c" d="m1613.9 202.9c0 7.2-5.8 12.9-12.9 12.9-7.1 0-12.9-5.7-12.9-12.9 0-1.8 0.4-3.5 1.1-5.1l22.4-2.2c1.5 2.1 2.3 4.6 2.3 7.3z"/><path class="b" d="m1390.1 411.6c-0.3-5.2 0.1-10.4 0.8-15.6q1.1-7.8 3.3-15.4c2.9-10.1 7.4-20.1 14-29.1 6.6-9 15.6-16.9 26.5-21.7 5.4-2.5 11.2-4 17-4.9 2.9-0.4 5.8-0.5 8.7-0.6 1.6 0 2.6 0 4 0q2.1 0 4.1 0.1c5.4 0.3 10.8 0.8 16.2 1.8 5.4 0.9 10.8 2.2 16.1 4 10.4 3.6 20.5 9.1 28.9 16.3 8.4 7.3 15.2 16.1 20.2 25.4 4.9 9.4 8.4 19.2 10.6 29.4-6.1-8.4-12.1-16.5-18.7-23.8-6.6-7.2-13.7-13.5-21.5-18.4-15.6-9.9-33.8-13.9-52.7-14.7q-1.7-0.1-3.5-0.1c-1-0.1-2.6-0.1-3.6-0.1-2.1 0-4.2 0.1-6.4 0.3-4.2 0.4-8.3 1.4-12.3 2.8-3.9 1.4-7.7 3.4-11.3 5.8-3.7 2.4-7.1 5.2-10.3 8.5-6.5 6.5-12.1 14.3-17 22.8-5 8.5-9.3 17.6-13.1 27.2z"/><path class="e" d="m1170.6 284.3c0 155.8-126.2 282-282 282-155.7 0-282-126.2-282-282 0-155.7 126.3-282 282-282 155.8 0 282 126.3 282 282z"/><path class="b" d="m842.1 210.4c0 21.2-17.1 38.3-38.3 38.3-21.1 0-38.3-17.1-38.3-38.3 0-21.2 17.2-38.3 38.3-38.3 21.2 0 38.3 17.1 38.3 38.3z"/><path class="b" d="m1012.2 210.4c0 21.2-17.1 38.3-38.3 38.3-21.1 0-38.3-17.1-38.3-38.3 0-21.2 17.2-38.3 38.3-38.3 21.2 0 38.3 17.1 38.3 38.3z"/><path class="c" d="m830.8 197.9c0 7-5.7 12.7-12.7 12.7-7 0-12.7-5.7-12.7-12.7 0-7.1 5.7-12.8 12.7-12.8 7 0 12.7 5.7 12.7 12.8z"/><path class="c" d="m1000 197.9c0 7-5.7 12.7-12.8 12.7-7 0-12.7-5.7-12.7-12.7 0-7.1 5.7-12.8 12.7-12.8 7.1 0 12.8 5.7 12.8 12.8z"/><path  d="m794.4 394.3c3.6-6.7 8.5-12.7 14-18.1 5.5-5.3 11.7-10 18.3-14 13.2-8.1 28.2-13.3 43.5-15.8 15.3-2.5 31.1-2.3 46.2 1 7.5 1.6 14.9 4 21.8 7.2 7 3.2 13.6 7.1 19.3 12.1-15-2.2-29-3.6-43-3.7q-20.8-0.2-41.1 3.1c-13.5 2.2-26.8 5.6-39.9 10.2-13.2 4.6-25.9 10.6-39.1 18z"/></g></svg>